<mxfile host="app.diagrams.net" agent="Mozilla/5.0 (Windows NT 10.0; Win64; x64) AppleWebKit/537.36 (KHTML, like Gecko) Chrome/131.0.0.0 Safari/537.36" version="26.0.1">
  <diagram name="Page-1" id="03018318-947c-dd8e-b7a3-06fadd420f32">
    <mxGraphModel dx="3354" dy="1258" grid="1" gridSize="10" guides="1" tooltips="1" connect="1" arrows="1" fold="1" page="1" pageScale="1" pageWidth="1100" pageHeight="850" background="none" math="0" shadow="0">
      <root>
        <mxCell id="0" />
        <mxCell id="1" parent="0" />
        <mxCell id="677b7b8949515195-1" value="" style="whiteSpace=wrap;html=1;rounded=0;shadow=0;labelBackgroundColor=none;strokeColor=#000000;strokeWidth=1;fillColor=none;fontFamily=Verdana;fontSize=12;fontColor=#000000;align=center;comic=1;" parent="1" vertex="1">
          <mxGeometry x="20" y="60" width="1060" height="560" as="geometry" />
        </mxCell>
        <mxCell id="LmwmgGfayQPv5SeDVGtm-13" value="Go Back" style="html=1;shadow=0;dashed=0;shape=mxgraph.bootstrap.rrect;rSize=5;strokeColor=none;strokeWidth=1;fillColor=none;fontColor=#0085FC;whiteSpace=wrap;align=center;verticalAlign=middle;spacingLeft=0;fontStyle=0;fontSize=16;spacing=5;" parent="1" vertex="1">
          <mxGeometry x="60" y="380" width="90" height="40" as="geometry" />
        </mxCell>
        <mxCell id="LmwmgGfayQPv5SeDVGtm-14" value="&lt;font style=&quot;font-size: 18px;&quot;&gt;fourthwallacademy.com/Weaknesses/1&lt;/font&gt;" style="html=1;strokeWidth=1;shadow=0;dashed=0;shape=mxgraph.ios7ui.url;fillColor=#e0e0e0;strokeColor=#c0c0c0;buttonText=;strokeColor2=#222222;fontColor=#222222;fontSize=8;spacingTop=2;align=center;whiteSpace=wrap;" parent="1" vertex="1">
          <mxGeometry x="25" y="10" width="1050" height="42.5" as="geometry" />
        </mxCell>
        <mxCell id="yyuM_Z-W85GqfefdKvoD-3" value="Power:&amp;nbsp;Pyrokinesis" style="text;strokeColor=none;fillColor=none;html=1;fontSize=24;fontStyle=1;verticalAlign=middle;align=left;" parent="1" vertex="1">
          <mxGeometry x="50" y="80" width="490" height="40" as="geometry" />
        </mxCell>
        <mxCell id="uf5XucCRE3hMxo9ocxFI-7" value="&lt;font style=&quot;font-size: 17px;&quot;&gt;Control and manipulation of fire.&lt;/font&gt;" style="text;html=1;align=left;verticalAlign=middle;whiteSpace=wrap;rounded=0;" parent="1" vertex="1">
          <mxGeometry x="70" y="170" width="480" height="30" as="geometry" />
        </mxCell>
        <mxCell id="uf5XucCRE3hMxo9ocxFI-8" value="&lt;font style=&quot;font-size: 18px;&quot;&gt;&lt;b&gt;Description:&lt;/b&gt;&lt;/font&gt;" style="text;html=1;align=left;verticalAlign=middle;whiteSpace=wrap;rounded=0;" parent="1" vertex="1">
          <mxGeometry x="70" y="140" width="110" height="30" as="geometry" />
        </mxCell>
        <mxCell id="uf5XucCRE3hMxo9ocxFI-9" value="&lt;font style=&quot;font-size: 18px;&quot;&gt;&lt;b&gt;Power Type:&lt;/b&gt;&lt;/font&gt;" style="text;html=1;align=left;verticalAlign=middle;whiteSpace=wrap;rounded=0;" parent="1" vertex="1">
          <mxGeometry x="70" y="220" width="110" height="30" as="geometry" />
        </mxCell>
        <mxCell id="uf5XucCRE3hMxo9ocxFI-10" value="&lt;font style=&quot;font-size: 17px;&quot;&gt;Elemental&lt;/font&gt;" style="text;html=1;align=left;verticalAlign=middle;whiteSpace=wrap;rounded=0;" parent="1" vertex="1">
          <mxGeometry x="70" y="250" width="480" height="30" as="geometry" />
        </mxCell>
        <mxCell id="uf5XucCRE3hMxo9ocxFI-11" value="&lt;font style=&quot;font-size: 17px;&quot;&gt;Manipulation of natural elements like fire, water, earth, and air.&lt;/font&gt;" style="text;html=1;align=left;verticalAlign=middle;whiteSpace=wrap;rounded=0;" parent="1" vertex="1">
          <mxGeometry x="70" y="330" width="930" height="30" as="geometry" />
        </mxCell>
        <mxCell id="uf5XucCRE3hMxo9ocxFI-12" value="&lt;font style=&quot;font-size: 18px;&quot;&gt;&lt;b&gt;Power Type Description:&lt;/b&gt;&lt;/font&gt;" style="text;html=1;align=left;verticalAlign=middle;whiteSpace=wrap;rounded=0;" parent="1" vertex="1">
          <mxGeometry x="70" y="300" width="290" height="30" as="geometry" />
        </mxCell>
      </root>
    </mxGraphModel>
  </diagram>
</mxfile>
